grf
version=1
nRows=23
nColumns=46
inDegrees=yes
endheader
time	ground_force_1_vx	ground_force_1_vy	ground_force_1_vz	ground_force_1_px	ground_force_1_py	ground_force_1_pz	ground_moment_1_mx	ground_moment_1_my	ground_moment_1_mz	ground_force_2_vx	ground_force_2_vy	ground_force_2_vz	ground_force_2_px	ground_force_2_py	ground_force_2_pz	ground_moment_2_mx	ground_moment_2_my	ground_moment_2_mz	ground_force_3_vx	ground_force_3_vy	ground_force_3_vz	ground_force_3_px	ground_force_3_py	ground_force_3_pz	ground_moment_3_mx	ground_moment_3_my	ground_moment_3_mz	ground_force_4_vx	ground_force_4_vy	ground_force_4_vz	ground_force_4_px	ground_force_4_py	ground_force_4_pz	ground_moment_4_mx	ground_moment_4_my	ground_moment_4_mz	ground_force_5_vx	ground_force_5_vy	ground_force_5_vz	ground_force_5_px	ground_force_5_py	ground_force_5_pz	ground_moment_5_mx	ground_moment_5_my	ground_moment_5_mz
2.817500	0.000000	0.000000	0.000000	0.000000	0.000000	0.000000	0.000000	0.000000	0.000000	0.000000	0.000000	0.000000	0.000000	0.000000	0.000000	0.000000	0.000000	0.000000	0.000000	0.000000	0.000000	0.000000	0.000000	0.000000	0.000000	0.000000	0.000000	11.712147	432.576683	-15.559968	0.192614	0.000000	-1.080190	-0.000000	0.979931	0.000000	-3.398377	454.210381	18.405511	0.212725	0.000000	-1.395508	-0.000000	-2.169810	-0.000000
2.818000	0.000000	0.000000	0.000000	0.000000	0.000000	0.000000	0.000000	0.000000	0.000000	0.000000	0.000000	0.000000	0.000000	0.000000	0.000000	0.000000	0.000000	0.000000	0.000000	0.000000	0.000000	0.000000	0.000000	0.000000	0.000000	0.000000	0.000000	11.719444	432.535063	-15.600391	0.192652	0.000000	-1.080176	-0.000000	0.981164	0.000000	-3.430131	454.137844	18.377091	0.212735	0.000000	-1.395501	-0.000000	-2.173160	-0.000000
2.818500	0.000000	0.000000	0.000000	0.000000	0.000000	0.000000	0.000000	0.000000	0.000000	0.000000	0.000000	0.000000	0.000000	0.000000	0.000000	0.000000	0.000000	0.000000	0.000000	0.000000	0.000000	0.000000	0.000000	0.000000	0.000000	0.000000	0.000000	11.726588	432.498381	-15.640330	0.192690	0.000000	-1.080162	-0.000000	0.982366	0.000000	-3.460798	454.071226	18.347313	0.212746	0.000000	-1.395493	-0.000000	-2.176498	-0.000000
2.819000	0.000000	0.000000	0.000000	0.000000	0.000000	0.000000	0.000000	0.000000	0.000000	0.000000	0.000000	0.000000	0.000000	0.000000	0.000000	0.000000	0.000000	0.000000	0.000000	0.000000	0.000000	0.000000	0.000000	0.000000	0.000000	0.000000	0.000000	11.733575	432.466542	-15.679748	0.192728	0.000000	-1.080149	-0.000000	0.983537	0.000000	-3.490391	454.010140	18.316255	0.212755	0.000000	-1.395485	-0.000000	-2.179823	-0.000000
2.819500	0.000000	0.000000	0.000000	0.000000	0.000000	0.000000	0.000000	0.000000	0.000000	0.000000	0.000000	0.000000	0.000000	0.000000	0.000000	0.000000	0.000000	0.000000	0.000000	0.000000	0.000000	0.000000	0.000000	0.000000	0.000000	0.000000	0.000000	11.740399	432.439456	-15.718612	0.192766	0.000000	-1.080136	-0.000000	0.984674	0.000000	-3.518937	453.954195	18.283998	0.212765	0.000000	-1.395476	-0.000000	-2.183129	-0.000000
2.820000	0.000000	0.000000	0.000000	0.000000	0.000000	0.000000	0.000000	0.000000	0.000000	0.000000	0.000000	0.000000	0.000000	0.000000	0.000000	0.000000	0.000000	0.000000	0.000000	0.000000	0.000000	0.000000	0.000000	0.000000	0.000000	0.000000	0.000000	11.747059	432.417033	-15.756896	0.192803	0.000000	-1.080123	-0.000000	0.985778	0.000000	-3.546470	453.902993	18.250621	0.212774	0.000000	-1.395467	-0.000000	-2.186412	-0.000000
2.820500	0.000000	0.000000	0.000000	0.000000	0.000000	0.000000	0.000000	0.000000	0.000000	0.000000	0.000000	0.000000	0.000000	0.000000	0.000000	0.000000	0.000000	0.000000	0.000000	0.000000	0.000000	0.000000	0.000000	0.000000	0.000000	0.000000	0.000000	11.753554	432.399187	-15.794580	0.192840	0.000000	-1.080111	-0.000000	0.986847	0.000000	-3.573025	453.856131	18.216202	0.212782	0.000000	-1.395458	-0.000000	-2.189667	-0.000000
2.821000	0.000000	0.000000	0.000000	0.000000	0.000000	0.000000	0.000000	0.000000	0.000000	0.000000	0.000000	0.000000	0.000000	0.000000	0.000000	0.000000	0.000000	0.000000	0.000000	0.000000	0.000000	0.000000	0.000000	0.000000	0.000000	0.000000	0.000000	11.759885	432.385834	-15.831657	0.192876	0.000000	-1.080099	-0.000000	0.987882	0.000000	-3.598643	453.813192	18.180822	0.212790	0.000000	-1.395449	-0.000000	-2.192889	-0.000000
2.821500	0.000000	0.000000	0.000000	0.000000	0.000000	0.000000	0.000000	0.000000	0.000000	0.000000	0.000000	0.000000	0.000000	0.000000	0.000000	0.000000	0.000000	0.000000	0.000000	0.000000	0.000000	0.000000	0.000000	0.000000	0.000000	0.000000	0.000000	11.766054	432.376881	-15.868131	0.192913	0.000000	-1.080087	-0.000000	0.988883	0.000000	-3.623371	453.773759	18.144561	0.212798	0.000000	-1.395439	-0.000000	-2.196071	-0.000000
2.822000	0.000000	0.000000	0.000000	0.000000	0.000000	0.000000	0.000000	0.000000	0.000000	0.000000	0.000000	0.000000	0.000000	0.000000	0.000000	0.000000	0.000000	0.000000	0.000000	0.000000	0.000000	0.000000	0.000000	0.000000	0.000000	0.000000	0.000000	11.772059	432.372236	-15.904011	0.192949	0.000000	-1.080075	-0.000000	0.989849	0.000000	-3.647262	453.737422	18.107503	0.212806	0.000000	-1.395430	-0.000000	-2.199208	-0.000000
2.822500	0.000000	0.000000	0.000000	0.000000	0.000000	0.000000	0.000000	0.000000	0.000000	0.000000	0.000000	0.000000	0.000000	0.000000	0.000000	0.000000	0.000000	0.000000	0.000000	0.000000	0.000000	0.000000	0.000000	0.000000	0.000000	0.000000	0.000000	11.777894	432.371794	-15.939310	0.192985	0.000000	-1.080064	-0.000000	0.990777	0.000000	-3.670382	453.703783	18.069734	0.212814	0.000000	-1.395420	-0.000000	-2.202292	-0.000000
2.823000	0.000000	0.000000	0.000000	0.000000	0.000000	0.000000	0.000000	0.000000	0.000000	0.000000	0.000000	0.000000	0.000000	0.000000	0.000000	0.000000	0.000000	0.000000	0.000000	0.000000	0.000000	0.000000	0.000000	0.000000	0.000000	0.000000	0.000000	11.783553	432.375448	-15.974041	0.193020	0.000000	-1.080052	-0.000000	0.991661	0.000000	-3.692797	453.672460	18.031342	0.212821	0.000000	-1.395410	-0.000000	-2.205316	-0.000000
2.823500	0.000000	0.000000	0.000000	0.000000	0.000000	0.000000	0.000000	0.000000	0.000000	0.000000	0.000000	0.000000	0.000000	0.000000	0.000000	0.000000	0.000000	0.000000	0.000000	0.000000	0.000000	0.000000	0.000000	0.000000	0.000000	0.000000	0.000000	11.789023	432.383087	-16.008212	0.193055	0.000000	-1.080041	-0.000000	0.992498	0.000000	-3.714575	453.643093	17.992411	0.212828	0.000000	-1.395401	-0.000000	-2.208270	-0.000000
2.824000	0.000000	0.000000	0.000000	0.000000	0.000000	0.000000	0.000000	0.000000	0.000000	0.000000	0.000000	0.000000	0.000000	0.000000	0.000000	0.000000	0.000000	0.000000	0.000000	0.000000	0.000000	0.000000	0.000000	0.000000	0.000000	0.000000	0.000000	11.794297	432.394609	-16.041827	0.193090	0.000000	-1.080030	-0.000000	0.993284	0.000000	-3.735781	453.615344	17.953014	0.212836	0.000000	-1.395391	-0.000000	-2.211145	-0.000000
2.824500	0.000000	0.000000	0.000000	0.000000	0.000000	0.000000	0.000000	0.000000	0.000000	0.000000	0.000000	0.000000	0.000000	0.000000	0.000000	0.000000	0.000000	0.000000	0.000000	0.000000	0.000000	0.000000	0.000000	0.000000	0.000000	0.000000	0.000000	11.799369	432.409919	-16.074892	0.193125	0.000000	-1.080019	-0.000000	0.994015	0.000000	-3.756476	453.588891	17.913222	0.212843	0.000000	-1.395381	-0.000000	-2.213934	-0.000000
2.825000	0.000000	0.000000	0.000000	0.000000	0.000000	0.000000	0.000000	0.000000	0.000000	0.000000	0.000000	0.000000	0.000000	0.000000	0.000000	0.000000	0.000000	0.000000	0.000000	0.000000	0.000000	0.000000	0.000000	0.000000	0.000000	0.000000	0.000000	11.804238	432.428926	-16.107408	0.193159	0.000000	-1.080009	-0.000000	0.994689	0.000000	-3.776721	453.563425	17.873100	0.212850	0.000000	-1.395371	-0.000000	-2.216626	-0.000000
2.825500	0.000000	0.000000	0.000000	0.000000	0.000000	0.000000	0.000000	0.000000	0.000000	0.000000	0.000000	0.000000	0.000000	0.000000	0.000000	0.000000	0.000000	0.000000	0.000000	0.000000	0.000000	0.000000	0.000000	0.000000	0.000000	0.000000	0.000000	11.808903	432.451540	-16.139384	0.193193	0.000000	-1.079998	-0.000000	0.995303	0.000000	-3.796573	453.538651	17.832718	0.212858	0.000000	-1.395362	-0.000000	-2.219214	-0.000000
2.826000	0.000000	0.000000	0.000000	0.000000	0.000000	0.000000	0.000000	0.000000	0.000000	0.000000	0.000000	0.000000	0.000000	0.000000	0.000000	0.000000	0.000000	0.000000	0.000000	0.000000	0.000000	0.000000	0.000000	0.000000	0.000000	0.000000	0.000000	11.813365	432.477670	-16.170829	0.193226	0.000000	-1.079988	-0.000000	0.995852	0.000000	-3.816089	453.514289	17.792138	0.212866	0.000000	-1.395352	-0.000000	-2.221690	-0.000000
2.826500	0.000000	0.000000	0.000000	0.000000	0.000000	0.000000	0.000000	0.000000	0.000000	0.000000	0.000000	0.000000	0.000000	0.000000	0.000000	0.000000	0.000000	0.000000	0.000000	0.000000	0.000000	0.000000	0.000000	0.000000	0.000000	0.000000	0.000000	11.817618	432.507230	-16.201751	0.193259	0.000000	-1.079977	-0.000000	0.996329	0.000000	-3.835323	453.490089	17.751425	0.212873	0.000000	-1.395343	-0.000000	-2.224046	-0.000000
2.827000	0.000000	0.000000	0.000000	0.000000	0.000000	0.000000	0.000000	0.000000	0.000000	0.000000	0.000000	0.000000	0.000000	0.000000	0.000000	0.000000	0.000000	0.000000	0.000000	0.000000	0.000000	0.000000	0.000000	0.000000	0.000000	0.000000	0.000000	11.821656	432.540148	-16.232163	0.193292	0.000000	-1.079967	-0.000000	0.996730	0.000000	-3.854322	453.465830	17.710639	0.212881	0.000000	-1.395334	-0.000000	-2.226280	-0.000000
2.827500	0.000000	0.000000	0.000000	0.000000	0.000000	0.000000	0.000000	0.000000	0.000000	0.000000	0.000000	0.000000	0.000000	0.000000	0.000000	0.000000	0.000000	0.000000	0.000000	0.000000	0.000000	0.000000	0.000000	0.000000	0.000000	0.000000	0.000000	11.825478	432.576361	-16.262075	0.193325	0.000000	-1.079957	-0.000000	0.997045	0.000000	-3.873130	453.441332	17.669844	0.212890	0.000000	-1.395325	-0.000000	-2.228388	-0.000000
2.828000	0.000000	0.000000	0.000000	0.000000	0.000000	0.000000	0.000000	0.000000	0.000000	0.000000	0.000000	0.000000	0.000000	0.000000	0.000000	0.000000	0.000000	0.000000	0.000000	0.000000	0.000000	0.000000	0.000000	0.000000	0.000000	0.000000	0.000000	11.829083	432.615811	-16.291500	0.193357	0.000000	-1.079947	-0.000000	0.997268	0.000000	-3.891783	453.416448	17.629102	0.212898	0.000000	-1.395316	-0.000000	-2.230369	-0.000000
2.828500	0.000000	0.000000	0.000000	0.000000	0.000000	0.000000	0.000000	0.000000	0.000000	0.000000	0.000000	0.000000	0.000000	0.000000	0.000000	0.000000	0.000000	0.000000	0.000000	0.000000	0.000000	0.000000	0.000000	0.000000	0.000000	0.000000	0.000000	11.832477	432.658441	-16.320457	0.193389	0.000000	-1.079937	-0.000000	0.997394	0.000000	-3.910315	453.391064	17.588473	0.212907	0.000000	-1.395308	-0.000000	-2.232224	-0.000000
